<?xml version="1.0" encoding="utf-8"?>
<!-- Generator: Adobe Illustrator 24.0.0, SVG Export Plug-In . SVG Version: 6.00 Build 0)  -->
<svg version="1.1" id="icons" xmlns="http://www.w3.org/2000/svg" xmlns:xlink="http://www.w3.org/1999/xlink" x="0px" y="0px"
	 viewBox="0 0 1350 1350" style="enable-background:new 0 0 1350 1350;" xml:space="preserve">
<style type="text/css">
	.st0{clip-path:url(#SVGID_1_);}
	.st1{clip-path:url(#SVGID_2_);}
	.st2{clip-path:url(#SVGID_2_);fill:#0090FF;}
	.st3{clip-path:url(#SVGID_2_);fill:#444444;}
	.st4{clip-path:url(#SVGID_2_);fill:#8CBDF6;}
</style>
<g>
	<g>
		<defs>
			<rect id="SVGID_93_" x="24.42" y="462.45" width="250" height="250"/>
		</defs>
		<clipPath id="SVGID_1_">
			<use xlink:href="#SVGID_93_"  style="overflow:visible;"/>
		</clipPath>
		<g class="st0">
			<defs>
				<rect id="SVGID_95_" x="24.42" y="462.45" width="250" height="250"/>
			</defs>
			<clipPath id="SVGID_2_">
				<use xlink:href="#SVGID_95_"  style="overflow:visible;"/>
			</clipPath>
			<path class="st1" d="M149.51,583.47v-4h7.22c-0.88-3.17-3.77-5.5-7.22-5.5c-4.14,0-7.5,3.36-7.5,7.5c0,4.14,3.36,7.5,7.5,7.5
				c3.45,0,6.35-2.33,7.22-5.5H149.51z"/>
			<path class="st2" d="M166.97,583.47c-0.99,8.77-8.43,15.58-17.46,15.58c-9.71,0-17.58-7.87-17.58-17.58s7.87-17.58,17.58-17.58
				c9.03,0,16.47,6.82,17.46,15.58h10.13c-1.03-14.34-12.98-25.67-27.59-25.67c-15.28,0-27.67,12.39-27.67,27.67
				c0,15.28,12.39,27.67,27.67,27.67c14.61,0,26.56-11.32,27.59-25.67H166.97z"/>
			<path class="st1" d="M187.2,583.47c-1.04,19.92-17.52,35.75-37.7,35.75c-20.85,0-37.75-16.9-37.75-37.75
				c0-20.85,16.9-37.75,37.75-37.75c20.18,0,36.66,15.83,37.7,35.75h10.09c-1.05-25.49-22.04-45.83-47.78-45.83
				c-26.42,0-47.83,21.42-47.83,47.83c0,26.42,21.42,47.83,47.83,47.83c25.75,0,46.73-20.34,47.78-45.83H187.2z"/>
			<path class="st2" d="M207.37,583.47c-1.06,31.06-26.55,55.92-57.87,55.92c-31.99,0-57.92-25.93-57.92-57.92
				c0-31.99,25.93-57.92,57.92-57.92c31.32,0,56.81,24.86,57.87,55.92h10.08c-1.06-36.63-31.06-66-67.95-66c-37.55,0-68,30.44-68,68
				c0,37.55,30.44,68,68,68c36.89,0,66.89-29.37,67.95-66H207.37z"/>
			<path class="st2" d="M91.75,601.06c0-5.81-4.22-10.61-9.75-11.56c0.85,7.2,2.82,14.06,5.74,20.39
				C90.19,607.74,91.75,604.58,91.75,601.06"/>
			<path class="st3" d="M149.51,589.97c-4.69,0-8.5-3.81-8.5-8.5s3.81-8.5,8.5-8.5c0.55,0,1,0.45,1,1s-0.45,1-1,1
				c-3.58,0-6.5,2.92-6.5,6.5s2.92,6.5,6.5,6.5c0.55,0,1,0.45,1,1S150.06,589.97,149.51,589.97"/>
			<rect x="208.68" y="521.44" class="st4" width="2" height="4"/>
			<rect x="208.68" y="531.44" class="st4" width="2" height="4"/>
			<rect x="212.68" y="527.44" class="st4" width="4" height="2"/>
			<rect x="202.68" y="527.44" class="st4" width="4" height="2"/>
			<rect x="98.62" y="641.52" class="st4" width="2" height="4"/>
			<rect x="98.62" y="651.52" class="st4" width="2" height="4"/>
			<rect x="102.62" y="647.52" class="st4" width="4" height="2"/>
			<rect x="92.62" y="647.52" class="st4" width="4" height="2"/>
			<rect x="230.7" y="601.49" class="st4" width="2" height="4"/>
			<rect x="230.7" y="611.49" class="st4" width="2" height="4"/>
			<rect x="234.7" y="607.49" class="st4" width="4" height="2"/>
			<rect x="224.7" y="607.49" class="st4" width="4" height="2"/>
			<path class="st3" d="M74.92,626.46c0-2.02,1.64-3.67,3.67-3.67c2.02,0,3.67,1.64,3.67,3.67c0,2.03-1.64,3.67-3.67,3.67
				C76.56,630.12,74.92,628.48,74.92,626.46"/>
			<path class="st3" d="M186.26,510.05c-0.71,0-1.28-0.57-1.28-1.28c0-0.71,0.57-1.28,1.28-1.28c0.7,0,1.28,0.57,1.28,1.28
				C187.54,509.48,186.97,510.05,186.26,510.05"/>
			<path class="st3" d="M223.51,569.47c0,1.1-0.9,2-2,2c-1.11,0-2-0.9-2-2s0.89-2,2-2C222.61,567.47,223.51,568.36,223.51,569.47"/>
			<path class="st3" d="M185.51,651.47c0,1.1-0.9,2-2,2c-1.11,0-2-0.9-2-2c0-1.11,0.89-2,2-2
				C184.61,649.47,185.51,650.36,185.51,651.47"/>
			<path class="st4" d="M149.51,564.89c8.47,0,15.46,6.38,16.45,14.58h2.02c-1-9.31-8.9-16.58-18.47-16.58c-0.55,0-1,0.45-1,1
				S148.96,564.89,149.51,564.89"/>
			<path class="st4" d="M165.96,583.47c-0.99,8.2-7.98,14.58-16.45,14.58c-9.14,0-16.58-7.44-16.58-16.58c0-0.55-0.45-1-1-1
				c-0.55,0-1,0.45-1,1c0,10.25,8.34,18.58,18.58,18.58c9.57,0,17.47-7.27,18.47-16.58H165.96z"/>
			<path class="st4" d="M176.09,579.47h2c-1.03-14.88-13.46-26.67-28.59-26.67c-15.81,0-28.67,12.86-28.67,28.67c0,0.55,0.45,1,1,1
				c0.55,0,1-0.45,1-1c0-14.7,11.96-26.67,26.67-26.67C163.54,554.8,175.07,565.7,176.09,579.47"/>
			<path class="st4" d="M176.09,583.47c-1.03,13.77-12.55,24.67-26.58,24.67c-0.55,0-1,0.45-1,1c0,0.55,0.45,1,1,1
				c15.13,0,27.56-11.79,28.59-26.67H176.09z"/>
			<path class="st3" d="M149.51,544.72c19.59,0,35.65,15.41,36.69,34.75h2c-1.04-20.44-18-36.75-38.7-36.75c-0.55,0-1,0.45-1,1
				S148.96,544.72,149.51,544.72"/>
			<path class="st3" d="M186.2,583.47c-1.04,19.34-17.1,34.75-36.69,34.75c-20.26,0-36.75-16.49-36.75-36.75c0-0.55-0.45-1-1-1
				c-0.55,0-1,0.45-1,1c0,21.37,17.38,38.75,38.75,38.75c20.7,0,37.65-16.31,38.7-36.75H186.2z"/>
			<path class="st3" d="M196.29,583.47c-1.05,24.9-21.63,44.83-46.78,44.83c-25.82,0-46.83-21.01-46.83-46.83c0-0.55-0.45-1-1-1
				c-0.55,0-1,0.45-1,1c0,26.93,21.91,48.83,48.83,48.83c26.26,0,47.73-20.83,48.78-46.83H196.29z"/>
			<path class="st3" d="M149.51,534.64c25.15,0,45.73,19.93,46.78,44.83h2c-1.05-26-22.53-46.83-48.78-46.83c-0.55,0-1,0.45-1,1
				S148.96,534.64,149.51,534.64"/>
			<path class="st4" d="M206.37,579.47h2c-1.06-31.56-27.05-56.92-58.87-56.92c-32.49,0-58.92,26.43-58.92,58.92c0,0.55,0.45,1,1,1
				c0.55,0,1-0.45,1-1c0-31.38,25.53-56.92,56.92-56.92C180.22,524.55,205.32,549.01,206.37,579.47"/>
			<path class="st4" d="M206.37,583.47c-1.06,30.46-26.15,54.92-56.87,54.92c-0.55,0-1,0.45-1,1c0,0.55,0.45,1,1,1
				c31.82,0,57.81-25.35,58.87-56.92H206.37z"/>
			<path class="st4" d="M216.46,583.47c-1.06,36.02-30.68,65-66.95,65c-36.94,0-67-30.06-67-67c0-36.94,30.06-67,67-67
				c0.55,0,1-0.45,1-1s-0.45-1-1-1c-38.05,0-69,30.95-69,69s30.95,69,69,69c37.38,0,67.88-29.88,68.95-67H216.46z"/>
		</g>
	</g>
</g>
</svg>
