<?xml version="1.0" encoding="utf-8"?>
<!-- Generator: Adobe Illustrator 24.0.0, SVG Export Plug-In . SVG Version: 6.00 Build 0)  -->
<svg version="1.1" id="icons" xmlns="http://www.w3.org/2000/svg" xmlns:xlink="http://www.w3.org/1999/xlink" x="0px" y="0px"
	 viewBox="0 0 1350 1350" style="enable-background:new 0 0 1350 1350;" xml:space="preserve">
<style type="text/css">
	.st0{clip-path:url(#SVGID_1_);}
	.st1{clip-path:url(#SVGID_2_);fill:#0090FF;}
	.st2{clip-path:url(#SVGID_2_);fill:#8CBDF6;}
	.st3{clip-path:url(#SVGID_2_);}
	.st4{clip-path:url(#SVGID_2_);fill:#636363;}
</style>
<g>
	<g>
		<defs>
			<rect id="SVGID_169_" x="231.21" y="974.45" width="250" height="250"/>
		</defs>
		<clipPath id="SVGID_1_">
			<use xlink:href="#SVGID_169_"  style="overflow:visible;"/>
		</clipPath>
		<polygon class="st0" points="322.36,1144.38 322.36,1161.38 330.36,1157.38 338.36,1161.38 338.36,1144.38 330.48,1147.51 		"/>
		<polyline class="st0" points="383.84,1033.33 383.84,1057.17 407.69,1057.17 		"/>
		<g class="st0">
			<defs>
				<rect id="SVGID_171_" x="231.21" y="974.45" width="250" height="250"/>
			</defs>
			<clipPath id="SVGID_2_">
				<use xlink:href="#SVGID_171_"  style="overflow:visible;"/>
			</clipPath>
			<path class="st1" d="M408.69,1176.44H301.36v-145.05h17.69c0.55,0,1,0.45,1,1c0,0.55-0.45,1-1,1h-15.69v141.05h103.33v-37
				c0-0.55,0.45-1,1-1c0.55,0,1,0.45,1,1V1176.44z"/>
			<path class="st1" d="M407.69,1118.44c-0.55,0-1-0.45-1-1v-60.8l-23.26-23.26h-54.87c-0.55,0-1-0.45-1-1c0-0.55,0.45-1,1-1h55.69
				l24.43,24.43v61.63C408.69,1117.99,408.24,1118.44,407.69,1118.44"/>
			<path class="st2" d="M323.8,1034.33c-0.13,0-0.26-0.02-0.38-0.08c-0.12-0.05-0.23-0.12-0.33-0.21c-0.18-0.19-0.29-0.45-0.29-0.71
				c0-0.13,0.03-0.26,0.08-0.38c0.05-0.12,0.12-0.23,0.21-0.33c0.1-0.09,0.21-0.16,0.33-0.21c0.37-0.16,0.81-0.07,1.09,0.21
				c0.09,0.1,0.16,0.21,0.21,0.33c0.06,0.12,0.08,0.25,0.08,0.38c0,0.26-0.11,0.52-0.29,0.71
				C324.32,1034.22,324.06,1034.33,323.8,1034.33"/>
			<path class="st1" d="M403.96,1135.09l-3.55-3.55l4.34-7.81l38.85-38.85c0.94-0.94,2.2-1.46,3.54-1.46s2.59,0.52,3.54,1.46
				c0.94,0.94,1.46,2.2,1.46,3.54c0,1.33-0.52,2.59-1.46,3.54l-38.96,38.95L403.96,1135.09z M402.89,1131.18l1.44,1.44l6.19-3.34
				l38.75-38.75c0.57-0.57,0.88-1.32,0.88-2.12c0-0.8-0.31-1.56-0.88-2.12c-0.57-0.57-1.32-0.88-2.12-0.88
				c-0.8,0-1.55,0.31-2.12,0.88l-38.75,38.75L402.89,1131.18z"/>
			<path class="st1" d="M403.34,1138.83l-6.62-6.62l3.6-3.6l6.63,6.63L403.34,1138.83z M399.55,1132.21l3.8,3.8l0.77-0.77l-3.79-3.8
				L399.55,1132.21z"/>
			<path class="st1" d="M387.62,1147.89l4.36-14.23l0.89,0.18c0.02,0,1.7,0.35,2.91,0.04c1.55-0.39,2.85-1.34,2.86-1.35l0.69-0.51
				l4.19,4.19l-0.51,0.69c-0.01,0.01-0.97,1.33-1.35,2.87c-0.25,1.02-0.06,2.45,0.04,2.91l0.19,0.9L387.62,1147.89z M393.37,1135.93
				l-2.74,8.95l8.98-2.71c-0.08-0.77-0.13-1.9,0.11-2.89c0.29-1.16,0.82-2.19,1.21-2.84l-1.83-1.83c-0.65,0.39-1.68,0.92-2.84,1.2
				C395.27,1136.07,394.14,1136.02,393.37,1135.93"/>
			<path class="st1" d="M394.03,1142.48c-0.26,0-0.51-0.1-0.71-0.29c-0.39-0.39-0.39-1.02,0-1.41l2.06-2.06
				c0.39-0.39,1.02-0.39,1.41,0c0.39,0.39,0.39,1.02,0,1.42l-2.06,2.06C394.54,1142.38,394.29,1142.48,394.03,1142.48"/>
			<path class="st1" d="M330.86,1147.88c-7.17,0-13-5.83-13-13c0-7.17,5.83-13,13-13s13,5.83,13,13
				C343.86,1142.05,338.03,1147.88,330.86,1147.88 M330.86,1123.88c-6.07,0-11,4.93-11,11c0,6.06,4.93,11,11,11s11-4.94,11-11
				C341.86,1128.82,336.92,1123.88,330.86,1123.88"/>
			<path class="st3" d="M338.86,1134.88c0,4.42-3.58,8-8,8s-8-3.58-8-8c0-4.42,3.58-8,8-8S338.86,1130.46,338.86,1134.88"/>
			<rect x="361.27" y="1129.39" class="st1" width="29.08" height="2"/>
			<rect x="361.36" y="1133.3" class="st1" width="21" height="2"/>
			<path class="st1" d="M367.35,1150.3c-3.31,0-6-2.69-6-6c0-1.57,0.63-3.07,1.78-4.22c1.15-1.15,2.65-1.78,4.22-1.78
				c3.31,0,6,2.69,6,6v2c0,0.55,0.45,1,1,1s1-0.45,1-1c0-1.65,1.35-3,3-3s3,1.35,3,3c0,0.55,0.45,1,1,1c0.55,0,1,0.45,1,1
				c0,0.55-0.45,1-1,1c-1.65,0-3-1.34-3-3c0-0.55-0.45-1-1-1s-1,0.45-1,1c0,1.66-1.35,3-3,3s-3-1.34-3-3v-2c0-2.21-1.79-4-4-4
				c-1.04,0-2.04,0.42-2.81,1.19c-0.77,0.77-1.19,1.77-1.19,2.81c0,2.21,1.8,4,4,4c0.55,0,1,0.45,1,1S367.91,1150.3,367.35,1150.3"
				/>
			<path class="st2" d="M386.36,1149.3c-0.27,0-0.53-0.1-0.71-0.29c-0.19-0.19-0.29-0.45-0.29-0.71s0.1-0.52,0.29-0.71
				c0.37-0.37,1.04-0.37,1.41,0c0.19,0.19,0.3,0.45,0.3,0.71s-0.11,0.52-0.3,0.71C386.88,1149.2,386.62,1149.3,386.36,1149.3"/>
			<path class="st1" d="M357.36,1153.39c-0.27,0-0.52-0.11-0.71-0.3c-0.19-0.18-0.29-0.44-0.29-0.7c0-0.27,0.1-0.53,0.29-0.71
				c0.37-0.37,1.04-0.37,1.41,0c0.19,0.18,0.3,0.44,0.3,0.71c0,0.26-0.11,0.52-0.3,0.7
				C357.88,1153.28,357.62,1153.39,357.36,1153.39"/>
			<path class="st1" d="M388.36,1152.39c0-0.56,0.44-1,1-1c0.55,0,0.99,0.44,0.99,1c0,0.55-0.44,1-0.99,1
				C388.8,1153.39,388.36,1152.94,388.36,1152.39 M384.36,1152.39c0-0.56,0.44-1,1-1c0.55,0,0.99,0.44,0.99,1c0,0.55-0.44,1-0.99,1
				C384.8,1153.39,384.36,1152.94,384.36,1152.39 M380.36,1152.39c0-0.56,0.44-1,1-1c0.55,0,0.99,0.44,0.99,1c0,0.55-0.44,1-0.99,1
				C380.8,1153.39,380.36,1152.94,380.36,1152.39 M376.36,1152.39c0-0.56,0.44-1,1-1c0.55,0,0.99,0.44,0.99,1c0,0.55-0.44,1-0.99,1
				C376.8,1153.39,376.36,1152.94,376.36,1152.39 M372.36,1152.39c0-0.56,0.44-1,1-1c0.55,0,0.99,0.44,0.99,1c0,0.55-0.44,1-0.99,1
				C372.8,1153.39,372.36,1152.94,372.36,1152.39 M368.36,1152.39c0-0.56,0.44-1,0.99-1c0.56,0,1,0.44,1,1c0,0.55-0.44,1-1,1
				C368.8,1153.39,368.36,1152.94,368.36,1152.39 M364.36,1152.39c0-0.56,0.44-1,0.99-1c0.56,0,1.01,0.44,1.01,1
				c0,0.55-0.45,1-1.01,1C364.8,1153.39,364.36,1152.94,364.36,1152.39 M360.36,1152.39c0-0.56,0.44-1,1-1c0.55,0,1,0.44,1,1
				c0,0.55-0.45,1-1,1C360.8,1153.39,360.36,1152.94,360.36,1152.39"/>
			<path class="st1" d="M393.36,1153.39c-0.27,0-0.53-0.11-0.71-0.3c-0.19-0.18-0.29-0.44-0.29-0.7c0-0.27,0.1-0.53,0.29-0.71
				c0.37-0.37,1.04-0.37,1.41,0c0.19,0.18,0.3,0.44,0.3,0.71c0,0.26-0.11,0.52-0.3,0.7
				C393.88,1153.28,393.62,1153.39,393.36,1153.39"/>
			<rect x="361.36" y="1125.39" class="st3" width="9" height="2"/>
			<rect x="319.36" y="1062.39" class="st1" width="18" height="2"/>
			<rect x="319.36" y="1066.39" class="st1" width="18" height="2"/>
			<rect x="325.36" y="1075.39" class="st1" width="66" height="2"/>
			<rect x="319.36" y="1079.39" class="st1" width="72" height="2"/>
			<rect x="319.36" y="1083.39" class="st1" width="72" height="2"/>
			<rect x="319.36" y="1087.39" class="st1" width="60" height="2"/>
			<rect x="325.36" y="1097.39" class="st1" width="66" height="2"/>
			<rect x="319.36" y="1101.39" class="st1" width="72" height="2"/>
			<rect x="319.36" y="1105.39" class="st1" width="72" height="2"/>
			<rect x="319.36" y="1109.39" class="st1" width="60" height="2"/>
			<rect x="379.36" y="1061.38" class="st1" width="12" height="2"/>
			<path class="st1" d="M305.04,1176.39h-7.68v-145.05h7.68c0.55,0,1,0.45,1,1c0,0.55-0.45,1-1,1h-5.68v141.05h5.68
				c0.55,0,1,0.45,1,1S305.59,1176.39,305.04,1176.39"/>
			<path class="st1" d="M301.04,1176.39h-7.68v-145.05h7.68c0.55,0,1,0.45,1,1c0,0.55-0.45,1-1,1h-5.68v141.05h5.68
				c0.55,0,1,0.45,1,1S301.59,1176.39,301.04,1176.39"/>
			<rect x="290.29" y="1181.38" class="st2" width="2" height="4"/>
			<rect x="290.29" y="1191.38" class="st2" width="2" height="4"/>
			<rect x="294.29" y="1187.38" class="st2" width="4" height="2"/>
			<rect x="284.29" y="1187.38" class="st2" width="4" height="2"/>
			<rect x="403.36" y="1023.38" class="st2" width="2" height="4"/>
			<rect x="403.36" y="1033.38" class="st2" width="2" height="4"/>
			<rect x="407.36" y="1029.38" class="st2" width="4" height="2"/>
			<rect x="397.36" y="1029.38" class="st2" width="4" height="2"/>
			<path class="st4" d="M420.37,1064.41c0-2.21,1.79-4,4-4c2.21,0,4,1.79,4,4c0,2.21-1.79,4-4,4
				C422.16,1068.41,420.37,1066.62,420.37,1064.41"/>
			<path class="st4" d="M271.36,1094.94c0-1.34,1.09-2.43,2.43-2.43c1.34,0,2.43,1.09,2.43,2.43c0,1.34-1.09,2.43-2.43,2.43
				C272.44,1097.37,271.36,1096.28,271.36,1094.94"/>
			<path class="st4" d="M283.36,1135.81c0-1.34,1.09-2.43,2.43-2.43c1.34,0,2.43,1.09,2.43,2.43c0,1.34-1.09,2.43-2.43,2.43
				C284.44,1138.24,283.36,1137.15,283.36,1135.81"/>
			<path class="st4" d="M373.34,1179.81c0-1.34,1.09-2.43,2.43-2.43c1.34,0,2.43,1.09,2.43,2.43c0,1.34-1.09,2.43-2.43,2.43
				C374.43,1182.24,373.34,1181.15,373.34,1179.81"/>
		</g>
	</g>
</g>
</svg>
